<svg width="46" height="26" viewBox="0 0 46 26" fill="none" xmlns="http://www.w3.org/2000/svg">
<g filter="url(#filter0_d_1_100)">
<path d="M10.8856 6.328C11.227 6.328 11.4936 6.424 11.6856 6.616C11.8883 6.808 11.9896 7.07467 11.9896 7.416C11.9896 7.50133 11.9843 7.592 11.9736 7.688C11.963 7.77333 11.9416 7.848 11.9096 7.912C11.771 7.89067 11.6163 7.87467 11.4456 7.864C11.275 7.84267 11.0723 7.832 10.8376 7.832C10.3576 7.832 9.87763 7.87467 9.39763 7.96C8.91763 8.04533 8.45896 8.11467 8.02163 8.168C7.54163 9.29867 7.14696 10.36 6.83763 11.352C6.52829 12.344 6.28829 13.3253 6.11763 14.296C5.75496 14.2107 5.43496 14.056 5.15763 13.832C4.88029 13.608 4.61896 13.2933 4.37363 12.888C4.44829 12.7173 4.53896 12.5147 4.64563 12.28C4.75229 12.0347 4.88029 11.7307 5.02963 11.368C5.17896 10.9947 5.35496 10.5467 5.55763 10.024C5.77096 9.49067 6.02163 8.856 6.30963 8.12C5.86163 7.97067 5.56829 7.70933 5.42963 7.336C5.48296 7.28267 5.63229 7.224 5.87763 7.16C6.12296 7.08533 6.42163 7.00533 6.77363 6.92C6.93363 6.504 7.0723 6.136 7.18963 5.816C7.30696 5.48533 7.41363 5.176 7.50963 4.888C7.60563 4.58933 7.69096 4.30133 7.76563 4.024C7.85096 3.736 7.92563 3.432 7.98963 3.112H7.90963C7.50429 3.112 7.17363 3.016 6.91763 2.824C6.67229 2.632 6.54963 2.38133 6.54963 2.072C6.54963 1.98667 6.56029 1.88533 6.58163 1.768C6.61363 1.65067 6.65096 1.54933 6.69363 1.464C6.89629 1.496 7.09363 1.51733 7.28563 1.528C7.48829 1.53867 7.74963 1.544 8.06963 1.544C8.74163 1.544 9.37096 1.528 9.95763 1.496C10.5443 1.45333 11.0723 1.41067 11.5416 1.368C12.0216 1.32533 12.4323 1.288 12.7736 1.256C13.115 1.21333 13.3763 1.192 13.5576 1.192C13.803 1.192 14.0216 1.32 14.2136 1.576C14.4056 1.832 14.555 2.19467 14.6616 2.664C14.3203 2.632 14.043 2.61067 13.8296 2.6C13.627 2.58933 13.4456 2.584 13.2856 2.584C12.7416 2.584 12.2403 2.61067 11.7816 2.664C11.3336 2.70667 10.907 2.76 10.5016 2.824C10.4376 2.92 10.363 3.04267 10.2776 3.192C10.203 3.34133 10.1016 3.55467 9.97363 3.832C9.84563 4.09867 9.6803 4.45067 9.47763 4.888C9.28563 5.32533 9.0403 5.88 8.74163 6.552C9.15763 6.488 9.55229 6.43467 9.92563 6.392C10.3096 6.34933 10.6296 6.328 10.8856 6.328ZM11.9605 12.68C12.0138 12.3707 12.1045 11.9653 12.2325 11.464C12.3712 10.952 12.5312 10.4133 12.7125 9.848C12.8938 9.272 13.0858 8.696 13.2885 8.12C13.4912 7.544 13.6885 7.02667 13.8805 6.568C14.0192 6.23733 14.1418 5.98133 14.2485 5.8C14.3552 5.608 14.4725 5.448 14.6005 5.32C14.7498 5.34133 14.9045 5.37867 15.0645 5.432C15.2245 5.48533 15.3792 5.54933 15.5285 5.624C15.6778 5.69867 15.8112 5.77867 15.9285 5.864C16.0458 5.93867 16.1365 6.01333 16.2005 6.088C15.9125 6.42933 15.6565 6.81867 15.4325 7.256C15.2192 7.69333 15.0005 8.25333 14.7765 8.936C15.3525 8.424 15.8592 7.93333 16.2965 7.464C16.7445 6.99467 17.1605 6.472 17.5445 5.896C17.6085 5.84267 17.7205 5.816 17.8805 5.816C18.0298 5.816 18.1738 5.84267 18.3125 5.896C18.4512 5.93867 18.5472 6.00267 18.6005 6.088C18.4085 6.6 18.3125 7.10667 18.3125 7.608C18.3125 8.07733 18.3818 8.42933 18.5205 8.664C18.5098 8.728 18.4352 8.85067 18.2965 9.032C18.1685 9.21333 18.0245 9.384 17.8645 9.544C17.5765 9.39467 17.3205 9.192 17.0965 8.936C16.8725 8.66933 16.7072 8.38133 16.6005 8.072C16.0992 8.424 15.6725 8.77067 15.3205 9.112C14.9685 9.44267 14.6645 9.816 14.4085 10.232C14.1632 10.6373 13.9498 11.1067 13.7685 11.64C13.5978 12.1733 13.4325 12.808 13.2725 13.544C13.1765 13.5333 13.0592 13.496 12.9205 13.432C12.7925 13.3787 12.6592 13.3093 12.5205 13.224C12.3925 13.1387 12.2752 13.048 12.1685 12.952C12.0618 12.856 11.9925 12.7653 11.9605 12.68ZM24.2056 6.376C24.163 7.03733 24.0456 7.608 23.8536 8.088C23.6616 8.55733 23.3843 8.97333 23.0216 9.336C22.6696 9.688 22.2376 10.008 21.7256 10.296C21.2136 10.584 20.6163 10.8613 19.9336 11.128C19.9336 11.192 19.9283 11.2613 19.9176 11.336C19.9176 11.4 19.9176 11.4693 19.9176 11.544C19.9176 11.6827 19.9283 11.8267 19.9496 11.976C19.971 12.1253 20.0083 12.264 20.0616 12.392C20.115 12.52 20.1896 12.6267 20.2856 12.712C20.3816 12.7867 20.5043 12.824 20.6536 12.824C20.9416 12.824 21.2243 12.76 21.5016 12.632C21.779 12.504 22.0403 12.3493 22.2856 12.168C22.5416 11.976 22.7763 11.7733 22.9896 11.56C23.2136 11.336 23.411 11.1333 23.5816 10.952C23.6883 11.048 23.779 11.1387 23.8536 11.224C23.3736 11.864 22.8456 12.3973 22.2696 12.824C21.7043 13.24 21.1656 13.5067 20.6536 13.624C19.9176 13.5387 19.3416 13.272 18.9256 12.824C18.5203 12.3653 18.3176 11.816 18.3176 11.176C18.3176 10.7387 18.3763 10.296 18.4936 9.848C18.6216 9.38933 18.7923 8.952 19.0056 8.536C19.2296 8.10933 19.4856 7.70933 19.7736 7.336C20.0723 6.96267 20.387 6.63733 20.7176 6.36C21.059 6.08267 21.4056 5.864 21.7576 5.704C22.1203 5.544 22.4776 5.464 22.8296 5.464C23.3203 5.528 23.779 5.832 24.2056 6.376ZM23.1016 6.904C22.8136 6.94667 22.515 7.064 22.2056 7.256C21.8963 7.448 21.603 7.704 21.3256 8.024C21.059 8.344 20.8136 8.71733 20.5896 9.144C20.3656 9.57067 20.1896 10.0293 20.0616 10.52C20.915 10.0933 21.6243 9.57067 22.1896 8.952C22.755 8.32267 23.059 7.64 23.1016 6.904ZM30.1464 6.632C30.1357 6.83467 30.0984 7.048 30.0344 7.272C29.981 7.48533 29.9117 7.68267 29.8264 7.864C29.741 8.03467 29.6504 8.17867 29.5544 8.296C29.4584 8.41333 29.3677 8.472 29.2824 8.472C29.165 8.46133 29.0957 8.38133 29.0744 8.232C29.0744 8.2 29.085 8.152 29.1064 8.088C29.1384 8.01333 29.1704 7.93333 29.2024 7.848C29.2344 7.76267 29.261 7.67733 29.2824 7.592C29.3144 7.50667 29.3304 7.432 29.3304 7.368C29.3304 7.21867 29.293 7.096 29.2184 7C29.1544 6.89333 29.0637 6.84 28.9464 6.84C28.5197 6.84 28.1944 7.10667 27.9704 7.64C27.7464 8.17333 27.6344 8.95733 27.6344 9.992C27.6344 10.0987 27.6397 10.1627 27.6504 10.184C27.8744 10.1733 28.0717 10.168 28.2424 10.168C28.4237 10.1573 28.5997 10.152 28.7704 10.152C28.781 10.1733 28.7864 10.216 28.7864 10.28C28.7864 10.376 28.765 10.4453 28.7224 10.488C28.477 10.5413 28.2797 10.5893 28.1304 10.632C27.9917 10.664 27.885 10.696 27.8104 10.728C27.7357 10.76 27.6877 10.7973 27.6664 10.84C27.6557 10.872 27.6504 10.92 27.6504 10.984C27.6504 11.0693 27.6504 11.1547 27.6504 11.24C27.661 11.3253 27.6664 11.432 27.6664 11.56C27.6664 12.456 27.421 13.176 26.9304 13.72C26.4504 14.264 25.7784 14.5787 24.9144 14.664C24.765 14.6533 24.6104 14.6107 24.4504 14.536C24.2904 14.4613 24.1357 14.3653 23.9864 14.248C23.8477 14.1307 23.725 13.9973 23.6184 13.848C23.5117 13.7093 23.437 13.5653 23.3944 13.416C23.3944 13.0107 23.4797 12.6267 23.6504 12.264C23.821 11.8907 24.0504 11.5653 24.3384 11.288C24.637 11 24.9837 10.7707 25.3784 10.6C25.7837 10.4187 26.221 10.312 26.6904 10.28C26.6904 10.0133 26.6637 9.752 26.6104 9.496C26.557 9.24 26.4984 8.99467 26.4344 8.76C26.381 8.51467 26.3277 8.28 26.2744 8.056C26.221 7.82133 26.1944 7.592 26.1944 7.368C26.1944 7.08 26.253 6.79733 26.3704 6.52C26.4877 6.232 26.6424 5.97067 26.8344 5.736C27.0264 5.49067 27.2504 5.28267 27.5064 5.112C27.7624 4.94133 28.029 4.824 28.3064 4.76C28.4237 4.792 28.5784 4.888 28.7704 5.048C28.973 5.19733 29.1704 5.368 29.3624 5.56C29.5544 5.752 29.725 5.94933 29.8744 6.152C30.0237 6.344 30.1144 6.504 30.1464 6.632ZM24.8664 13.928C25.1224 13.8213 25.3624 13.6667 25.5864 13.464C25.821 13.2613 26.0237 13.032 26.1944 12.776C26.365 12.52 26.4984 12.248 26.5944 11.96C26.701 11.672 26.7544 11.3893 26.7544 11.112C26.541 11.144 26.3064 11.2453 26.0504 11.416C25.7944 11.576 25.5544 11.7733 25.3304 12.008C25.1064 12.232 24.9197 12.4667 24.7704 12.712C24.621 12.9573 24.5464 13.1707 24.5464 13.352C24.5464 13.5867 24.653 13.7787 24.8664 13.928ZM30.7176 17.624C30.451 17.5173 30.291 17.3147 30.2376 17.016C30.195 16.728 30.0136 16.4933 29.6936 16.312C29.779 15.768 29.875 15.2187 29.9816 14.664C30.0883 14.1093 30.2216 13.48 30.3816 12.776C30.5523 12.0613 30.7603 11.2347 31.0056 10.296C31.2616 9.34667 31.5816 8.2 31.9656 6.856C31.6136 6.856 31.3363 6.86133 31.1336 6.872C30.931 6.88267 30.7336 6.904 30.5416 6.936C30.499 6.89333 30.4616 6.83467 30.4296 6.76C30.4083 6.68533 30.3976 6.616 30.3976 6.552C30.5043 6.50933 30.723 6.456 31.0536 6.392C31.3843 6.31733 31.747 6.25333 32.1416 6.2C32.3976 5.38933 32.691 4.664 33.0216 4.024C33.3523 3.37333 33.7096 2.81867 34.0936 2.36C34.4776 1.90133 34.883 1.54933 35.3096 1.304C35.7363 1.05867 36.1683 0.936 36.6056 0.936C36.7336 0.936 36.8563 0.946666 36.9736 0.967999C37.091 0.978666 37.1816 0.983999 37.2456 0.983999C37.3416 0.909333 37.4696 0.845333 37.6296 0.792C37.7896 0.727999 37.9283 0.695999 38.0456 0.695999C38.1736 0.695999 38.339 0.765333 38.5416 0.903999C38.4563 1.05333 38.3656 1.256 38.2696 1.512C38.1736 1.768 38.0936 2.01867 38.0296 2.264C37.763 3.05333 37.4803 3.56533 37.1816 3.8C37.0643 3.8 37.0003 3.64533 36.9896 3.336C36.979 3.112 36.947 2.89333 36.8936 2.68C36.851 2.584 36.819 2.49867 36.7976 2.424C36.787 2.34933 36.7816 2.25333 36.7816 2.136C36.7816 2.072 36.787 1.99733 36.7976 1.912C36.8083 1.816 36.8296 1.66133 36.8616 1.448C36.6803 1.448 36.4776 1.56 36.2536 1.784C36.0403 2.008 35.811 2.328 35.5656 2.744C35.331 3.14933 35.091 3.63467 34.8456 4.2C34.6003 4.76533 34.3656 5.38933 34.1416 6.072L35.4856 6.024C35.539 6.07733 35.5816 6.2 35.6136 6.392C35.6563 6.57333 35.683 6.76533 35.6936 6.968L33.9336 6.872C33.5283 8.07733 33.1496 9.22933 32.7976 10.328C32.4456 11.4267 32.131 12.44 31.8536 13.368C31.5763 14.296 31.3363 15.1227 31.1336 15.848C30.9416 16.584 30.803 17.176 30.7176 17.624ZM36.8119 13.56C36.2039 13.496 35.7185 13.2293 35.3559 12.76C34.9932 12.2907 34.8119 11.6933 34.8119 10.968C34.8119 10.5413 34.8759 10.0987 35.0039 9.64C35.1319 9.18133 35.3132 8.73867 35.5479 8.312C35.7825 7.87467 36.0599 7.464 36.3799 7.08C36.6999 6.696 37.0465 6.36533 37.4199 6.088C38.0065 5.65067 38.5559 5.432 39.0679 5.432C39.4092 5.61333 39.7452 5.992 40.0759 6.568C40.1292 6.568 40.1772 6.568 40.2199 6.568C40.2625 6.55733 40.3105 6.552 40.3639 6.552C40.9292 6.552 41.2119 7.05333 41.2119 8.056C41.2119 8.728 41.0999 9.368 40.8759 9.976C40.6625 10.5733 40.3585 11.1173 39.9639 11.608C39.5799 12.0987 39.1159 12.5147 38.5719 12.856C38.0385 13.1867 37.4519 13.4213 36.8119 13.56ZM37.6279 8.52C37.4465 8.76533 37.2759 9.032 37.1159 9.32C36.9559 9.608 36.8172 9.90133 36.6999 10.2C36.5825 10.488 36.4919 10.7707 36.4279 11.048C36.3639 11.3147 36.3319 11.5547 36.3319 11.768C36.3319 12.024 36.3745 12.2693 36.4599 12.504C36.5452 12.7387 36.6412 12.872 36.7479 12.904C37.2279 12.7973 37.6652 12.6 38.0599 12.312C38.4652 12.0133 38.8119 11.6453 39.0999 11.208C39.3985 10.7707 39.6279 10.2747 39.7879 9.72C39.9585 9.16533 40.0439 8.57333 40.0439 7.944C40.0439 7.66667 40.0279 7.448 39.9959 7.288C39.9639 7.128 39.9105 6.98933 39.8359 6.872C39.3665 7.01067 38.9452 7.23467 38.5719 7.544C38.2092 7.85333 37.8945 8.17867 37.6279 8.52Z" fill="#1E1E1E"/>
</g>
<defs>
<filter id="filter0_d_1_100" x="0.373627" y="0.695999" width="44.8383" height="24.928" filterUnits="userSpaceOnUse" color-interpolation-filters="sRGB">
<feFlood flood-opacity="0" result="BackgroundImageFix"/>
<feColorMatrix in="SourceAlpha" type="matrix" values="0 0 0 0 0 0 0 0 0 0 0 0 0 0 0 0 0 0 127 0" result="hardAlpha"/>
<feOffset dy="4"/>
<feGaussianBlur stdDeviation="2"/>
<feComposite in2="hardAlpha" operator="out"/>
<feColorMatrix type="matrix" values="0 0 0 0 0 0 0 0 0 0 0 0 0 0 0 0 0 0 0.25 0"/>
<feBlend mode="normal" in2="BackgroundImageFix" result="effect1_dropShadow_1_100"/>
<feBlend mode="normal" in="SourceGraphic" in2="effect1_dropShadow_1_100" result="shape"/>
</filter>
</defs>
</svg>
